<svg xmlns="http://www.w3.org/2000/svg" version="1.1" xmlns:xlink="http://www.w3.org/1999/xlink" xmlns:svgjs="http://svgjs.dev/svgjs" width="1500" height="518" viewBox="0 0 1500 518"><g transform="matrix(1,0,0,1,-0.9090909090911055,-0.24084799372207044)"><svg viewBox="0 0 396 137" data-background-color="#ffffff" preserveAspectRatio="xMidYMid meet" height="518" width="1500" xmlns="http://www.w3.org/2000/svg" xmlns:xlink="http://www.w3.org/1999/xlink"><g id="tight-bounds" transform="matrix(1,0,0,1,0.24000000000003752,0.06369917980680384)"><svg viewBox="0 0 395.5199999999999 136.87260164038642" height="136.87260164038642" width="395.5199999999999"><g><svg viewBox="0 0 650.860813779226 225.23516607944413" height="136.87260164038642" width="395.5199999999999"><g transform="matrix(1,0,0,1,255.34081377922595,66.7930417090414)"><svg viewBox="0 0 395.52 91.64908266136132" height="91.64908266136132" width="395.52"><g id="textblocktransform"><svg viewBox="0 0 395.52 91.64908266136132" height="91.64908266136132" width="395.52" id="textblock"><g><svg viewBox="0 0 395.52 63.762618181818176" height="63.762618181818176" width="395.52"><g transform="matrix(1,0,0,1,0,0)"><svg width="395.52" viewBox="1.05 -32.75 206.23 33.25" height="63.762618181818176" data-palette-color="#fafafa"><path d="M16-22.3L15.2-19.4Q14.25-19.65 13.18-19.83 12.1-20 11.2-20L11.2-20Q9.4-20 8.43-19.4 7.45-18.8 7.1-18.3L7.1-18.3Q6.3-17.25 6.15-15.8 6-14.35 6-13.25L6-13.25 6-3.8Q8.3-2.5 11.2-2.5L11.2-2.5Q12.6-2.5 13.83-2.75 15.05-3 16.3-3.6L16.3-3.6 16.3-0.45Q13.9 0.5 11.15 0.5L11.15 0.5Q8.6 0.5 6.65-0.08 4.7-0.65 3.33-1.5 1.95-2.35 1.05-3.05L1.05-3.05 2.8-5.1 2.8-13.25Q2.8-14.2 2.85-15.5 2.9-16.8 3.35-18.2 3.8-19.6 4.95-20.8L4.95-20.8Q6.4-22.3 8.15-22.65 9.9-23 11.3-23L11.3-23Q12.6-23 13.78-22.8 14.95-22.6 16-22.3L16-22.3ZM36.8-4.25L38-1.8Q36.7-1 34.55-0.25 32.4 0.5 29.35 0.5L29.35 0.5Q28.1 0.5 26.6 0.23 25.1-0.05 23.77-0.9 22.45-1.75 21.6-3.45L21.6-3.45Q21.3-4.2 21.1-5.25 20.9-6.3 20.8-8 20.7-9.7 20.7-12.35L20.7-12.35 20.7-22.5 23.9-22.5 23.9-12.25Q23.9-8.95 24.07-7.23 24.25-5.5 24.85-4.55L24.85-4.55Q25.3-3.9 26.37-3.2 27.45-2.5 29.6-2.5L29.6-2.5Q30.8-2.5 31.8-2.7 32.8-2.9 33.6-3.25L33.6-3.25 33.6-22.5 36.8-22.5 36.8-4.25ZM43.15 0L43.15-16.65 41.7-18.9Q43.9-20.75 46.57-21.68 49.25-22.6 52-23L52-23 52.55-20Q50.15-19.65 48.7-19.18 47.25-18.7 46.35-18.2L46.35-18.2 46.35 0 43.15 0ZM56.39-30.8L59.94-30.8 59.94-27.05 56.39-27.05 56.39-30.8ZM55.54-22.5L59.74-22.5 59.74 0 56.59 0 56.59-19.35 55.54-22.5ZM65.49-1.75L65.49-13.25Q65.49-14.2 65.54-15.5 65.59-16.8 66.02-18.2 66.44-19.6 67.54-20.8L67.54-20.8Q68.94-22.3 70.62-22.65 72.29-23 73.54-23L73.54-23Q74.84-23 76.49-22.65 78.14-22.3 79.54-20.8L79.54-20.8Q80.64-19.6 81.07-18.2 81.49-16.8 81.54-15.5 81.59-14.2 81.59-13.25L81.59-13.25 81.59-5.1 83.29-3.05Q81.29-1.3 78.89-0.4 76.49 0.5 73.54 0.5L73.54 0.5Q70.64 0.5 68.67-0.23 66.69-0.95 65.49-1.75L65.49-1.75ZM68.69-13.35L68.69-3.8Q69.84-3 71.14-2.75 72.44-2.5 73.54-2.5L73.54-2.5Q74.64-2.5 75.97-2.75 77.29-3 78.39-3.8L78.39-3.8 78.39-13.35Q78.39-14.45 78.27-15.85 78.14-17.25 77.39-18.3L77.39-18.3Q77.04-18.8 76.14-19.4 75.24-20 73.54-20L73.54-20Q71.84-20 70.97-19.4 70.09-18.8 69.69-18.3L69.69-18.3Q68.94-17.25 68.82-15.85 68.69-14.45 68.69-13.35L68.69-13.35ZM103.24-4.25L104.44-1.8Q103.14-1 100.99-0.25 98.84 0.5 95.79 0.5L95.79 0.5Q94.54 0.5 93.04 0.23 91.54-0.05 90.21-0.9 88.89-1.75 88.04-3.45L88.04-3.45Q87.74-4.2 87.54-5.25 87.34-6.3 87.24-8 87.14-9.7 87.14-12.35L87.14-12.35 87.14-22.5 90.34-22.5 90.34-12.25Q90.34-8.95 90.51-7.23 90.69-5.5 91.29-4.55L91.29-4.55Q91.74-3.9 92.81-3.2 93.89-2.5 96.04-2.5L96.04-2.5Q97.24-2.5 98.24-2.7 99.24-2.9 100.04-3.25L100.04-3.25 100.04-22.5 103.24-22.5 103.24-4.25ZM122.94-21.2L121.64-18.4Q120.24-19.1 118.91-19.5 117.59-19.9 115.89-19.9L115.89-19.9Q114.24-19.9 113.06-19.25 111.89-18.6 111.89-16.85L111.89-16.85Q111.89-15.5 112.79-14.73 113.69-13.95 114.99-13.3L114.99-13.3 118.29-11.7Q120.49-10.65 121.74-9.28 122.99-7.9 122.99-5.9L122.99-5.9 122.99-4.75 124.69-2.7Q122.54-0.7 120.14-0.1 117.74 0.5 115.54 0.5L115.54 0.5Q113.39 0.5 111.64 0.13 109.89-0.25 108.69-0.75L108.69-0.75 108.69-3.95Q110.09-3.35 111.61-2.93 113.14-2.5 115.44-2.5L115.44-2.5Q116.79-2.5 117.96-2.8 119.14-3.1 119.79-3.6L119.79-3.6 119.79-4.6Q119.79-6.1 119.16-7.08 118.54-8.05 116.64-9L116.64-9 112.79-10.9Q111.14-11.75 109.91-13.05 108.69-14.35 108.69-16.85L108.69-16.85Q108.69-19.65 110.61-21.33 112.54-23 115.89-23L115.89-23Q118.04-23 119.81-22.5 121.59-22 122.94-21.2L122.94-21.2ZM143.88-4.35L145.23-1.8Q143.68-0.9 141.53-0.2 139.38 0.5 136.78 0.5L136.78 0.5Q133.38 0.5 131.28-1.2 129.18-2.9 128.26-5.58 127.33-8.25 127.33-11.25L127.33-11.25Q127.33-14.25 128.36-16.93 129.38-19.6 131.43-21.3 133.48-23 136.58-23L136.58-23Q137.73-23 138.68-22.85 139.63-22.7 140.68-22.4L140.68-22.4 140.68-29.6 139.68-32.75 143.88-32.75 143.88-4.35ZM140.68-3.3L140.68-19.2Q140.13-19.45 139.21-19.73 138.28-20 137.08-20L137.08-20Q134.63-20 133.23-18.65 131.83-17.3 131.23-15.28 130.63-13.25 130.63-11.25L130.63-11.25Q130.63-9.25 131.16-7.23 131.68-5.2 133.08-3.85 134.48-2.5 136.98-2.5L136.98-2.5Q139.08-2.5 140.68-3.3L140.68-3.3ZM165.28-10.35L153.08-10.35 153.08-3.8Q154.23-3 155.58-2.75 156.93-2.5 158.08-2.5L158.08-2.5Q160.23-2.5 161.96-2.98 163.68-3.45 165.28-4.55L165.28-4.55 165.28-1.2Q163.78-0.3 162.01 0.1 160.23 0.5 158.18 0.5L158.18 0.5Q154.98 0.5 152.56-0.4 150.13-1.3 148.13-3.05L148.13-3.05 149.88-5.1 149.88-13.25Q149.88-14.2 149.91-15.5 149.93-16.8 150.33-18.2 150.73-19.6 151.78-20.8L151.78-20.8Q153.13-22.3 154.71-22.65 156.28-23 157.53-23L157.53-23Q158.83-23 160.41-22.65 161.98-22.3 163.28-20.8L163.28-20.8Q164.33-19.6 164.76-18.2 165.18-16.8 165.23-15.5 165.28-14.2 165.28-13.25L165.28-13.25 165.28-10.35ZM153.08-13.35L161.78-13.35Q161.78-14.45 161.68-15.85 161.58-17.25 160.88-18.3L160.88-18.3Q160.58-18.8 159.78-19.4 158.98-20 157.43-20L157.43-20Q155.93-20 155.11-19.4 154.28-18.8 153.93-18.3L153.93-18.3Q153.28-17.25 153.18-15.85 153.08-14.45 153.08-13.35L153.08-13.35ZM168.88-22.35L172.03-23 175.78-7Q176.18-5.3 176.9-3.95 177.63-2.6 179.28-2.5L179.28-2.5Q179.43-2.5 179.6-2.5 179.78-2.5 179.98-2.55L179.98-2.55 184.73-23 187.88-22.35 183.38-3.15 184.53-0.85Q183.73-0.35 182.45 0.08 181.18 0.5 179.53 0.5L179.53 0.5Q176.73 0.5 175.13-1.18 173.53-2.85 172.68-6.25L172.68-6.25 168.88-22.35ZM205.53-21.2L204.23-18.4Q202.83-19.1 201.5-19.5 200.18-19.9 198.48-19.9L198.48-19.9Q196.83-19.9 195.65-19.25 194.48-18.6 194.48-16.85L194.48-16.85Q194.48-15.5 195.38-14.73 196.28-13.95 197.58-13.3L197.58-13.3 200.88-11.7Q203.08-10.65 204.33-9.28 205.58-7.9 205.58-5.9L205.58-5.9 205.58-4.75 207.28-2.7Q205.13-0.7 202.73-0.1 200.33 0.5 198.13 0.5L198.13 0.5Q195.98 0.5 194.23 0.13 192.48-0.25 191.28-0.75L191.28-0.75 191.28-3.95Q192.68-3.35 194.2-2.93 195.73-2.5 198.03-2.5L198.03-2.5Q199.38-2.5 200.55-2.8 201.73-3.1 202.38-3.6L202.38-3.6 202.38-4.6Q202.38-6.1 201.75-7.08 201.13-8.05 199.23-9L199.23-9 195.38-10.9Q193.73-11.75 192.5-13.05 191.28-14.35 191.28-16.85L191.28-16.85Q191.28-19.65 193.2-21.33 195.13-23 198.48-23L198.48-23Q200.63-23 202.4-22.5 204.18-22 205.53-21.2L205.53-21.2Z" opacity="1" transform="matrix(1,0,0,1,0,0)" fill="#fafafa" class="wordmark-text-0" data-fill-palette-color="primary" id="text-0"></path></svg></g></svg></g><g transform="matrix(1,0,0,1,0,78.81544203170908)"><svg viewBox="0 0 232.209792 12.833640629652226" height="12.833640629652226" width="232.209792"><g transform="matrix(1,0,0,1,0,0)"><svg width="232.209792" viewBox="0.29 -41.99 960.27 53.07" height="12.833640629652226" data-palette-color="#cad4e8"><path d="M10.25 0L10.25-33.74 0.29-33.74 0.29-37.35 24.71-37.35 24.71-33.74 14.4-33.74 14.4 0 10.25 0ZM44.16-25.76L44.16-25.76Q39.3-25.76 34.52-22.95L34.52-22.95 34.52 0 30.47 0 30.47-41.55 34.42-41.94 34.42-26.05Q36.94-28.2 40.96-29.15L40.96-29.15Q42.58-29.54 44.77-29.54 46.97-29.54 48.63-29.04 50.29-28.54 51.27-27.44L51.27-27.44Q53.02-25.46 53.02-20.24L53.02-20.24 53.02 0 48.92 0 48.92-19.51Q48.92-23.02 48.24-24.04 47.56-25.05 46.62-25.4 45.68-25.76 44.16-25.76ZM85.3-5.03L86.49-1.54Q81.44 0.49 75.34 0.49L75.34 0.49Q71.8 0.49 69.33-0.24L69.33-0.24Q65.4-1.37 64.11-4.88L64.11-4.88Q62.91-8.18 62.91-14.65L62.91-14.65 62.91-15.89Q62.91-23.63 66.13-26.76L66.13-26.76Q69.04-29.54 75.83-29.54L75.83-29.54Q82.44-29.54 84.86-26.27L84.86-26.27Q86.03-24.68 86.41-22.42 86.79-20.17 86.79-18.12L86.79-18.12Q86.79-14.92 86.64-13.16L86.64-13.16Q83.2-13.01 80.46-13.01L80.46-13.01Q80.46-13.01 76.53-13.01L76.53-13.01Q70.38-13.01 67.06-13.55L67.06-13.55Q67.06-7.93 68.48-5.71L68.48-5.71Q70.21-3 75.39-3 80.56-3 85.3-5.03L85.3-5.03ZM67.06-16.41L82.66-16.41 82.66-18.75Q82.66-22.58 81.17-24.22L81.17-24.22Q79.51-26.05 75.43-26.05L75.43-26.05Q70.55-26.05 68.77-23.93L68.77-23.93Q67.06-21.9 67.06-16.41L67.06-16.41ZM109.83 0L109.83-37.35 113.12-37.35 130.31-10.21 132.53-5.59 132-10.72 132-37.35 135.78-37.35 135.78 0 132.29 0 115.22-27.08 113.08-31.27 113.61-26.29 113.61 0 109.83 0ZM168.57-5.03L169.76-1.54Q164.71 0.49 158.61 0.49L158.61 0.49Q155.07 0.49 152.6-0.24L152.6-0.24Q148.67-1.37 147.38-4.88L147.38-4.88Q146.18-8.18 146.18-14.65L146.18-14.65 146.18-15.89Q146.18-23.63 149.4-26.76L149.4-26.76Q152.31-29.54 159.09-29.54L159.09-29.54Q165.71-29.54 168.13-26.27L168.13-26.27Q169.3-24.68 169.68-22.42 170.06-20.17 170.06-18.12L170.06-18.12Q170.06-14.92 169.91-13.16L169.91-13.16Q166.47-13.01 163.73-13.01L163.73-13.01Q163.73-13.01 159.8-13.01L159.8-13.01Q153.65-13.01 150.33-13.55L150.33-13.55Q150.33-7.93 151.75-5.71L151.75-5.71Q153.48-3 158.65-3 163.83-3 168.57-5.03L168.57-5.03ZM150.33-16.41L165.93-16.41 165.93-18.75Q165.93-22.58 164.44-24.22L164.44-24.22Q162.78-26.05 158.7-26.05L158.7-26.05Q153.82-26.05 152.04-23.93L152.04-23.93Q150.33-21.9 150.33-16.41L150.33-16.41ZM177.01 0L186.63-14.72 177.3-29.05 182.04-29.05 189.27-17.31 196.62-29.05 201.28-29.05 191.81-14.84 201.84 0 197.15 0 189.24-12.08 181.48 0 177.01 0ZM231.4-29.05L231.4-12.79Q231.4-4.74 231.87-0.2L231.87-0.2 228.23 0.1 227.64-3.34Q224.79-0.98 220.98 0.07L220.98 0.07Q219.46 0.49 217.38 0.49 215.29 0.49 213.64-0.01 211.99-0.51 211.02-1.61L211.02-1.61Q209.24-3.59 209.24-8.81L209.24-8.81 209.24-29.05 213.34-29.05 213.34-9.47Q213.34-5.96 214.02-4.94 214.7-3.93 215.64-3.58 216.58-3.22 217.88-3.22 219.17-3.22 220.38-3.43 221.59-3.64 222.81-4.03L222.81-4.03Q225.37-4.86 227.45-6.3L227.45-6.3 227.45-6.32Q227.35-8.18 227.35-13.55L227.35-13.55 227.35-29.05 231.4-29.05ZM241.02-2.39L242.78-5.76Q247.81-2.95 252.89-2.95L252.89-2.95Q257.11-2.95 257.84-5.96L257.84-5.96Q258.09-6.98 258.09-8.46 258.09-9.94 257.74-10.75 257.4-11.57 256.6-11.98 255.79-12.38 254.46-12.57 253.13-12.77 251.08-13.12 249.03-13.48 247.32-13.92 245.61-14.36 244.41-15.19L244.41-15.19Q241.87-16.97 241.97-21.19L241.97-21.19 241.97-21.8Q241.97-26.25 244.9-28.13L244.9-28.13Q247.73-29.98 254.25-29.39L254.25-29.39Q258.7-28.98 261.33-27.86L261.33-27.86 260.19-24.17Q257.26-25.42 253.15-25.98L253.15-25.98Q251.88-26.15 250.77-26.15 249.66-26.15 248.76-25.98 247.86-25.81 247.25-25.34L247.25-25.34Q246.07-24.39 246.02-21.8L246.02-21.8Q245.95-18.75 247.73-17.92L247.73-17.92Q249.44-17.11 251.79-16.81 254.13-16.5 255.62-16.27 257.11-16.04 258.33-15.65 259.55-15.26 260.43-14.4L260.43-14.4Q262.26-12.67 262.21-8.37L262.21-8.37Q262.09-0.88 255.96 0.17L255.96 0.17Q254.11 0.49 252.25 0.49 250.4 0.49 248.84 0.26 247.29 0.02 245.88-0.39L245.88-0.39Q243.19-1.15 241.02-2.39L241.02-2.39ZM283.5-14.45L283.5-14.45Q283.5-20 284.06-22.19 284.62-24.39 285.44-25.67 286.25-26.95 287.65-27.81L287.65-27.81Q290.43-29.54 295.87-29.54L295.87-29.54Q303.73-29.54 305.98-25.66L305.98-25.66Q307.32-23.32 307.52-19.04L307.52-19.04Q307.59-17.02 307.59-14.58 307.59-12.13 307.43-10.02 307.27-7.91 306.81-6.23 306.35-4.54 305.52-3.28 304.69-2.03 303.32-1.17L303.32-1.17Q300.63 0.49 295.48 0.49L295.48 0.49Q287.77 0.49 285.35-3.32L285.35-3.32Q283.86-5.69 283.62-9.96L283.62-9.96Q283.5-12.01 283.5-14.45ZM290.14-4.27Q291.02-3.61 292.35-3.28 293.68-2.95 295.98-2.95 298.29-2.95 299.87-3.61 301.44-4.27 302.23-5.73 303.03-7.18 303.23-9.5 303.44-11.82 303.44-14.89 303.44-17.97 303.26-20.02 303.08-22.07 302.34-23.41L302.34-23.41Q300.88-26.05 295.82-26.05L295.82-26.05Q290.48-26.05 288.87-23.41L288.87-23.41Q288.06-22.07 287.84-20 287.62-17.92 287.62-15.48 287.62-13.04 287.68-11.34 287.74-9.64 288-8.29 288.26-6.93 288.76-5.93 289.26-4.93 290.14-4.27ZM326.44-38.48Q324.56-38.48 323.58-37.66 322.6-36.84 322.6-34.44 322.6-32.03 323.51-29.05L323.51-29.05 330.42-29.05 330.42-25.66 323.46-25.66 323.46 0 319.53 0 319.53-25.66 314.67-25.66 314.67-28.66 319.48-29.05Q319.16-29.71 318.87-31.91 318.58-34.11 318.58-35.06L318.58-35.06Q318.58-41.99 326.68-41.99L326.68-41.99Q329.61-41.99 332.22-41.36L332.22-41.36 331.49-37.72Q328.32-38.48 326.44-38.48ZM347.57-2.47L349.19-5.88Q354.73-2.95 360.03-2.95L360.03-2.95Q366.18-2.95 367.23-6.88L367.23-6.88Q367.57-8.18 367.57-9.86L367.57-9.86 367.57-10.82Q367.57-12.52 367.33-13.57 367.08-14.62 366.3-15.28L366.3-15.28Q365.03-16.38 360.29-17.11L360.29-17.11Q356.07-17.77 354.46-18.36 352.85-18.95 351.81-19.64 350.77-20.34 350.04-21.39L350.04-21.39Q348.53-23.58 348.53-27.47L348.53-27.47 348.53-27.71Q348.53-35.77 355.22-37.35L355.22-37.35Q357.34-37.84 360.03-37.84L360.03-37.84 360.34-37.84Q366.62-37.84 370.6-36.04L370.6-36.04 369.33-32.3Q364.52-34.38 360.47-34.38L360.47-34.38 360.25-34.38Q355.78-34.38 354.09-32.69L354.09-32.69Q352.68-31.27 352.68-27.78L352.68-27.78 352.68-27.69Q352.68-23.71 354.87-22.46L354.87-22.46Q356.36-21.66 360.21-21.04 364.05-20.43 365.93-20.01 367.81-19.58 369.13-18.6L369.13-18.6Q371.87-16.55 371.87-10.82L371.87-10.82 371.87-10.5Q371.87-1.73 364.81-0.05L364.81-0.05Q362.64 0.49 360.71 0.49 358.78 0.49 357.21 0.35 355.63 0.22 354-0.12L354-0.12Q350.16-0.9 347.57-2.47L347.57-2.47ZM401.65-5.03L402.85-1.54Q397.79 0.49 391.69 0.49L391.69 0.49Q388.15 0.49 385.68-0.24L385.68-0.24Q381.75-1.37 380.46-4.88L380.46-4.88Q379.26-8.18 379.26-14.65L379.26-14.65 379.26-15.89Q379.26-23.63 382.48-26.76L382.48-26.76Q385.39-29.54 392.18-29.54L392.18-29.54Q398.79-29.54 401.21-26.27L401.21-26.27Q402.38-24.68 402.76-22.42 403.14-20.17 403.14-18.12L403.14-18.12Q403.14-14.92 402.99-13.16L402.99-13.16Q399.55-13.01 396.82-13.01L396.82-13.01Q396.82-13.01 392.88-13.01L392.88-13.01Q386.73-13.01 383.41-13.55L383.41-13.55Q383.41-7.93 384.83-5.71L384.83-5.71Q386.56-3 391.74-3 396.91-3 401.65-5.03L401.65-5.03ZM383.41-16.41L399.01-16.41 399.01-18.75Q399.01-22.58 397.52-24.22L397.52-24.22Q395.86-26.05 391.79-26.05L391.79-26.05Q386.9-26.05 385.12-23.93L385.12-23.93Q383.41-21.9 383.41-16.41L383.41-16.41ZM432.36-4.59L433.58-1.29Q430.19 0.49 424.28 0.49L424.28 0.49Q420.79 0.49 419.15-0.05L419.15-0.05Q414.98-1.46 413.68-4.86L413.68-4.86Q412.78-7.23 412.63-9.96 412.49-12.7 412.49-14.58 412.49-16.46 412.58-18.25 412.68-20.04 413.06-21.7 413.44-23.36 414.22-24.79 415-26.22 416.34-27.29L416.34-27.29Q419.25-29.54 424.69-29.54L424.69-29.54Q428.7-29.54 432.07-28.37L432.07-28.37Q432.97-28.08 433.43-27.81L433.43-27.81 432.21-24.19Q427.53-26 424.54-26 421.54-26 420.14-25.32 418.74-24.63 417.96-23.24L417.96-23.24Q416.64-20.85 416.64-14.45L416.64-14.45Q416.64-11.89 416.81-9.78 416.98-7.67 417.66-6.15L417.66-6.15Q419.1-3.03 423.61-3.03 428.11-3.03 432.36-4.59L432.36-4.59ZM464.56-29.05L464.56-12.79Q464.56-4.74 465.02-0.2L465.02-0.2 461.39 0.1 460.8-3.34Q457.94-0.98 454.13 0.07L454.13 0.07Q452.62 0.49 450.53 0.49 448.45 0.49 446.8-0.01 445.15-0.51 444.17-1.61L444.17-1.61Q442.39-3.59 442.39-8.81L442.39-8.81 442.39-29.05 446.49-29.05 446.49-9.47Q446.49-5.96 447.18-4.94 447.86-3.93 448.8-3.58 449.74-3.22 451.03-3.22 452.33-3.22 453.54-3.43 454.75-3.64 455.97-4.03L455.97-4.03Q458.53-4.86 460.6-6.3L460.6-6.3 460.6-6.32Q460.51-8.18 460.51-13.55L460.51-13.55 460.51-29.05 464.56-29.05ZM486.31-25.51L486.31-25.51Q483.19-25.51 479.94-22.39L479.94-22.39 479.94 0 475.89 0 475.89-29.05 479.45-29.05 479.84-25.2Q480.99-26.98 482.32-27.98 483.65-28.98 484.5-29.2L484.5-29.2Q485.72-29.54 486.82-29.54 487.92-29.54 489.58-29.1L489.58-29.1 489.22-25.22Q487.97-25.51 486.31-25.51ZM499.64-36.01L499.64-36.01Q498-36.01 497.54-36.47L497.54-36.47Q496.81-37.23 496.81-38.56 496.81-39.89 496.96-40.47 497.12-41.04 497.44-41.36L497.44-41.36Q498.03-41.94 499.23-41.94 500.44-41.94 500.97-41.82 501.49-41.7 501.83-41.36L501.83-41.36Q502.42-40.77 502.42-39.44 502.42-38.11 502.29-37.54 502.15-36.96 501.83-36.62L501.83-36.62Q501.22-36.01 499.64-36.01ZM497.71 0L497.66-29.05 501.66-29.05 501.66 0 497.71 0ZM526.32-4.57L527.71-1.39Q523.73 0.49 520.36 0.49L520.36 0.49Q514.26 0.49 513.43-4.74L513.43-4.74Q513.23-5.98 513.23-8.35L513.23-8.35 513.23-25.66 509.72-25.66 509.72-28.66 513.23-29.05 513.87-35.69 517.26-35.69 517.26-29.05 525.73-29.05 525.73-25.66 517.26-25.66 517.26-8.42Q517.26-5.42 517.7-4.59L517.7-4.59Q518.51-3.08 520.92-3.08 523.34-3.08 526.32-4.57L526.32-4.57ZM532.52 10.21L533.62 7.03Q535.4 7.67 536.53 7.67 537.67 7.67 538.02 7.6 538.38 7.54 538.74 7.35L538.74 7.35Q539.6 6.88 540.01 5.83L540.01 5.83Q541.04 3.34 541.8 0.37L541.8 0.37 530.59-29.05 535.11-29.05 542.67-7.64 543.82-3.88 544.87-7.67 551.56-29.05 555.81-29.05 543.55 6.88Q542.21 11.08 537.35 11.08L537.35 11.08Q534.28 11.08 532.52 10.21L532.52 10.21ZM598.07-19.41L598.07-10.3Q598.07-5.44 598.53-0.2L598.53-0.2 594.92 0.1 594.31-3.3Q591.2-0.81 586.1 0.17L586.1 0.17Q584.44 0.49 583.15 0.49 581.85 0.49 580.87 0.37 579.88 0.24 578.96-0.11 578.05-0.46 577.26-1.1 576.48-1.73 575.9-2.78L575.9-2.78Q574.65-5 574.65-8.12 574.65-11.23 575.1-12.95 575.56-14.67 576.61-15.82L576.61-15.82Q578.68-18.09 583.59-18.09 588.49-18.09 594.06-16.24L594.06-16.24 594.06-19.41Q594.06-24.71 589.69-25.68L589.69-25.68Q588.28-26 586.44-26L586.44-26Q582.27-26 577.78-24.34L577.78-24.34 576.87-27.86Q578.12-28.69 583.22-29.35L583.22-29.35Q584.83-29.54 587.09-29.54 589.35-29.54 591.52-29 593.69-28.47 595.14-27.25L595.14-27.25Q598.07-24.83 598.07-19.41L598.07-19.41ZM593.96-13.18L593.96-13.18Q588.25-14.62 583.42-14.62L583.42-14.62Q580.44-14.62 579.46-12.92L579.46-12.92Q578.8-11.72 578.8-9.38 578.8-7.03 579.06-5.98 579.32-4.93 579.9-4.25L579.9-4.25Q581.05-2.95 583.69-2.95L583.69-2.95Q587.81-2.95 591.86-5.08L591.86-5.08Q593.11-5.71 594.11-6.49L594.11-6.49Q593.96-9.13 593.96-13.18ZM622.87-25.73L622.87-25.73Q618.11-25.73 613.17-22.92L613.17-22.92 613.17 0 609.12 0 609.12-29.05 612.69-29.05 613.08-26.05Q615.74-28.22 619.69-29.15L619.69-29.15Q621.3-29.54 623.48-29.54 625.65-29.54 627.31-29.04 628.97-28.54 629.95-27.44L629.95-27.44Q631.73-25.46 631.73-20.24L631.73-20.24 631.73 0 627.63 0 627.63-19.48Q627.63-23 626.94-24.01 626.26-25.02 625.32-25.38 624.38-25.73 622.87-25.73ZM661.88 0.1L661.29-3.25Q656.14 0.49 650.82 0.49L650.82 0.49Q644.94 0.49 642.98-3.83L642.98-3.83Q641.86-6.27 641.72-9 641.59-11.72 641.59-13.78 641.59-15.84 641.63-17.94 641.66-20.04 641.93-21.83 642.2-23.61 642.77-25.04 643.35-26.46 644.42-27.47L644.42-27.47Q646.64-29.54 651.76-29.54 656.87-29.54 661-27.76L661-27.76 661-41.55 665.05-41.94 665.05-13.35Q665.05-4.93 665.52-0.2L665.52-0.2 661.88 0.1ZM660.98-13.55L661-24.41Q656.61-25.88 652.5-25.88L652.5-25.88Q649.52-25.88 648.57-25.39 647.62-24.9 647.12-24.12 646.62-23.34 646.3-21.97L646.3-21.97Q645.74-19.41 645.74-13.53L645.74-13.53 645.74-12.99Q645.74-7.5 646.94-5.4L646.94-5.4Q648.23-3.17 651.75-3.17L651.75-3.17 652.11-3.17Q655.48-3.17 659.29-5.32L659.29-5.32Q660.34-5.91 661.1-6.49L661.1-6.49 661.1-6.54Q660.98-8.81 660.98-13.55L660.98-13.55ZM689.02 0L689.02-37.35 693.15-37.35 693.15 0 689.02 0ZM718.61-25.73L718.61-25.73Q713.85-25.73 708.92-22.92L708.92-22.92 708.92 0 704.86 0 704.86-29.05 708.43-29.05 708.82-26.05Q711.48-28.22 715.44-29.15L715.44-29.15Q717.05-29.54 719.22-29.54 721.39-29.54 723.05-29.04 724.71-28.54 725.69-27.44L725.69-27.44Q727.47-25.46 727.47-20.24L727.47-20.24 727.47 0 723.37 0 723.37-19.48Q723.37-23 722.69-24.01 722-25.02 721.06-25.38 720.12-25.73 718.61-25.73ZM751.91-25.73L751.91-25.73Q747.15-25.73 742.22-22.92L742.22-22.92 742.22 0 738.16 0 738.16-29.05 741.73-29.05 742.12-26.05Q744.78-28.22 748.73-29.15L748.73-29.15Q750.35-29.54 752.52-29.54 754.69-29.54 756.35-29.04 758.01-28.54 758.99-27.44L758.99-27.44Q760.77-25.46 760.77-20.24L760.77-20.24 760.77 0 756.67 0 756.67-19.48Q756.67-23 755.98-24.01 755.3-25.02 754.36-25.38 753.42-25.73 751.91-25.73ZM770.61-14.45L770.61-14.45Q770.61-20 771.17-22.19 771.73-24.39 772.55-25.67 773.36-26.95 774.76-27.81L774.76-27.81Q777.54-29.54 782.98-29.54L782.98-29.54Q790.85-29.54 793.09-25.66L793.09-25.66Q794.43-23.32 794.63-19.04L794.63-19.04Q794.7-17.02 794.7-14.58 794.7-12.13 794.54-10.02 794.39-7.91 793.92-6.23 793.46-4.54 792.63-3.28 791.8-2.03 790.43-1.17L790.43-1.17Q787.74 0.49 782.59 0.49L782.59 0.49Q774.88 0.49 772.46-3.32L772.46-3.32Q770.97-5.69 770.73-9.96L770.73-9.96Q770.61-12.01 770.61-14.45ZM777.25-4.27Q778.13-3.61 779.46-3.28 780.79-2.95 783.09-2.95 785.4-2.95 786.98-3.61 788.55-4.27 789.34-5.73 790.14-7.18 790.34-9.5 790.55-11.82 790.55-14.89 790.55-17.97 790.37-20.02 790.19-22.07 789.45-23.41L789.45-23.41Q787.99-26.05 782.94-26.05L782.94-26.05Q777.59-26.05 775.98-23.41L775.98-23.41Q775.17-22.07 774.95-20 774.73-17.92 774.73-15.48 774.73-13.04 774.79-11.34 774.85-9.64 775.11-8.29 775.37-6.93 775.87-5.93 776.37-4.93 777.25-4.27ZM811.25 0L801.29-29.05 805.66-29.05 813.28-5.35 814.01-2.93 814.7-5.35 821.97-29.05 826.39-29.05 816.58 0 811.25 0ZM856.1-19.41L856.1-10.3Q856.1-5.44 856.56-0.2L856.56-0.2 852.95 0.1 852.34-3.3Q849.24-0.81 844.14 0.17L844.14 0.17Q842.48 0.49 841.18 0.49 839.89 0.49 838.9 0.37 837.91 0.24 837-0.11 836.08-0.46 835.3-1.1 834.52-1.73 833.93-2.78L833.93-2.78Q832.69-5 832.69-8.12 832.69-11.23 833.14-12.95 833.59-14.67 834.64-15.82L834.64-15.82Q836.71-18.09 841.62-18.09 846.53-18.09 852.1-16.24L852.1-16.24 852.1-19.41Q852.1-24.71 847.73-25.68L847.73-25.68Q846.31-26 844.48-26L844.48-26Q840.3-26 835.81-24.34L835.81-24.34 834.91-27.86Q836.15-28.69 841.26-29.35L841.26-29.35Q842.87-29.54 845.13-29.54 847.38-29.54 849.56-29 851.73-28.47 853.17-27.25L853.17-27.25Q856.1-24.83 856.1-19.41L856.1-19.41ZM852-13.18L852-13.18Q846.28-14.62 841.45-14.62L841.45-14.62Q838.47-14.62 837.5-12.92L837.5-12.92Q836.84-11.72 836.84-9.38 836.84-7.03 837.09-5.98 837.35-4.93 837.94-4.25L837.94-4.25Q839.08-2.95 841.72-2.95L841.72-2.95Q845.85-2.95 849.9-5.08L849.9-5.08Q851.14-5.71 852.14-6.49L852.14-6.49Q852-9.13 852-13.18ZM880.07-4.57L881.46-1.39Q877.48 0.49 874.11 0.49L874.11 0.49Q868.01 0.49 867.18-4.74L867.18-4.74Q866.99-5.98 866.99-8.35L866.99-8.35 866.99-25.66 863.47-25.66 863.47-28.66 866.99-29.05 867.62-35.69 871.01-35.69 871.01-29.05 879.49-29.05 879.49-25.66 871.01-25.66 871.01-8.42Q871.01-5.42 871.45-4.59L871.45-4.59Q872.26-3.08 874.68-3.08 877.09-3.08 880.07-4.57L880.07-4.57ZM890.91-36.01L890.91-36.01Q889.27-36.01 888.81-36.47L888.81-36.47Q888.08-37.23 888.08-38.56 888.08-39.89 888.24-40.47 888.39-41.04 888.71-41.36L888.71-41.36Q889.3-41.94 890.51-41.94 891.71-41.94 892.24-41.82 892.76-41.7 893.11-41.36L893.11-41.36Q893.69-40.77 893.69-39.44 893.69-38.11 893.56-37.54 893.42-36.96 893.11-36.62L893.11-36.62Q892.5-36.01 890.91-36.01ZM888.98 0L888.93-29.05 892.94-29.05 892.94 0 888.98 0ZM903.82-14.45L903.82-14.45Q903.82-20 904.38-22.19 904.94-24.39 905.76-25.67 906.58-26.95 907.97-27.81L907.97-27.81Q910.75-29.54 916.2-29.54L916.2-29.54Q924.06-29.54 926.31-25.66L926.31-25.66Q927.65-23.32 927.84-19.04L927.84-19.04Q927.92-17.02 927.92-14.58 927.92-12.13 927.76-10.02 927.6-7.91 927.14-6.23 926.67-4.54 925.84-3.28 925.01-2.03 923.65-1.17L923.65-1.17Q920.96 0.49 915.81 0.49L915.81 0.49Q908.09 0.49 905.68-3.32L905.68-3.32Q904.19-5.69 903.94-9.96L903.94-9.96Q903.82-12.01 903.82-14.45ZM910.46-4.27Q911.34-3.61 912.67-3.28 914-2.95 916.31-2.95 918.62-2.95 920.19-3.61 921.77-4.27 922.56-5.73 923.35-7.18 923.56-9.5 923.77-11.82 923.77-14.89 923.77-17.97 923.58-20.02 923.4-22.07 922.67-23.41L922.67-23.41Q921.2-26.05 916.15-26.05L916.15-26.05Q910.8-26.05 909.19-23.41L909.19-23.41Q908.39-22.07 908.17-20 907.95-17.92 907.95-15.48 907.95-13.04 908.01-11.34 908.07-9.64 908.33-8.29 908.58-6.93 909.08-5.93 909.58-4.93 910.46-4.27ZM951.69-25.73L951.69-25.73Q946.93-25.73 942-22.92L942-22.92 942 0 937.95 0 937.95-29.05 941.51-29.05 941.9-26.05Q944.57-28.22 948.52-29.15L948.52-29.15Q950.13-29.54 952.31-29.54 954.48-29.54 956.14-29.04 957.8-28.54 958.77-27.44L958.77-27.44Q960.56-25.46 960.56-20.24L960.56-20.24 960.56 0 956.46 0 956.46-19.48Q956.46-23 955.77-24.01 955.09-25.02 954.15-25.38 953.21-25.73 951.69-25.73Z" opacity="1" transform="matrix(1,0,0,1,0,0)" fill="#cad4e8" class="slogan-text-1" data-fill-palette-color="secondary" id="text-1"></path></svg></g></svg></g></svg></g></svg></g><g><svg viewBox="0 0 225.23516607944413 225.23516607944413" height="225.23516607944413" width="225.23516607944413"><g><svg></svg></g><g id="icon-0"><svg viewBox="0 0 225.23516607944413 225.23516607944413" height="225.23516607944413" width="225.23516607944413"><g><path d="M0 112.618c0-62.197 50.421-112.618 112.618-112.618 62.197 0 112.618 50.421 112.617 112.618 0 62.197-50.421 112.618-112.617 112.617-62.197 0-112.618-50.421-112.618-112.617zM112.618 219.485c59.021 0 106.867-47.846 106.867-106.867 0-59.021-47.846-106.867-106.867-106.868-59.021 0-106.867 47.846-106.868 106.868 0 59.021 47.846 106.867 106.868 106.867z" data-fill-palette-color="accent" fill="#dbe9f7" stroke="transparent"></path></g><g transform="matrix(1,0,0,1,45.53398128901068,51.124281434903295)"><svg viewBox="0 0 134.16720350142276 122.98660320963754" height="122.98660320963754" width="134.16720350142276"><g><svg xmlns="http://www.w3.org/2000/svg" xmlns:xlink="http://www.w3.org/1999/xlink" version="1.1" x="0" y="0" viewBox="0 1 24 22" style="enable-background:new 0 0 24 24;" xml:space="preserve" height="122.98660320963754" width="134.16720350142276" class="icon-dxe-0" data-fill-palette-color="accent" id="dxe-0"><g fill="#dbe9f7" data-fill-palette-color="accent"><path d="M21.5 1H2.5A2.503 2.503 0 0 0 0 3.5V20.5C0 21.878 1.122 23 2.5 23H21.5C22.878 23 24 21.878 24 20.5V3.5C24 2.122 22.878 1 21.5 1M2.5 2H21.5C22.327 2 23 2.673 23 3.5V5H1V3.5C1 2.673 1.673 2 2.5 2M21.5 22H2.5C1.673 22 1 21.327 1 20.5V6H23V20.5C23 21.327 22.327 22 21.5 22" fill="#dbe9f7" data-fill-palette-color="accent"></path><circle cx="2.5" cy="3.5" r="0.50" fill="#dbe9f7" data-fill-palette-color="accent"></circle><circle cx="4.5" cy="3.5" r="0.50" fill="#dbe9f7" data-fill-palette-color="accent"></circle><circle cx="6.5" cy="3.5" r="0.50" fill="#dbe9f7" data-fill-palette-color="accent"></circle><path d="M7.853 10.148A0.5 0.5 0 0 0 7.146 10.855L9.792 13.501 7.146 16.147A0.5 0.5 0 0 0 7.853 16.855L10.853 13.855A0.5 0.5 0 0 0 10.853 13.148z" fill="#dbe9f7" data-fill-palette-color="accent"></path><path d="M17.5 15H12.5A0.5 0.5 0 0 0 12.5 16H17.5A0.5 0.5 0 0 0 17.5 15" fill="#dbe9f7" data-fill-palette-color="accent"></path></g></svg></g></svg></g></svg></g></svg></g></svg></g><defs></defs></svg><rect width="395.5199999999999" height="136.87260164038642" fill="none" stroke="none" visibility="hidden"></rect></g></svg></g></svg>